<svg xmlns="http://www.w3.org/2000/svg" viewBox="0 0 1024 1024"><defs><style>.a{fill:#ffffff;}</style></defs><path class="a" d="M962,512C962,263.48,760.51,62,512,62S62,263.48,62,512,263.48,962,512,962,962,760.53,962,512M155.94,316.14H375L194.5,762.9H831.57C757.19,857.52,641.68,918.29,512,918.29,287.6,918.29,105.7,736.4,105.7,512a404.61,404.61,0,0,1,50.24-195.86M772.6,510.39v-55H662.53V316.14H868a406.74,406.74,0,0,1,0,391.73H347.69L528.17,261.1H192.4C266.79,166.49,382.28,105.71,512,105.71s245.2,60.78,319.58,155.39H541.12V667.39H662.53v-157Z"/></svg>